<svg xmlns="http://www.w3.org/2000/svg" width="42.667" height="42.667" viewBox="0 0 32 32" preserveAspectRatio="xMidYMid meet" xmlns:v="https://vecta.io/nano"><path fill="#9155FD" d="M12.5.7c-1.1.3-2.9 1.1-3.9 1.9-1.6 1.1-1.2 1.2 3.5.8 4.6-.5 6.2-.2 11.4 2.5 3.2 1.6 6.1 2.9 6.2 2.7.9-.9-6.5-6.7-9.5-7.6-3.9-1-4.5-1.1-7.7-.3zm-9 6.7c-2.6 4-3.4 8.3-2.3 12.3 1.2 4.5 7.1 10.8 9.4 9.9.8-.3 1.3-.2 1 .3s.5 1.2 1.8 1.5c2.7.7 8.4-.2 9.1-1.5.8-1.3-3.3-2.1-6.8-1.3-2.7.6-3 .5-1.9-.9 1-1.2 1-1.6-.4-2.1-2.5-1-3.2-.7-3.7 1.1-.3 1.1-.5.7-.6-1-.1-1.9-1-3.3-3.3-4.7-1.8-1.1-2.7-2-1.9-2 1.1 0 1.1-.4-.2-1.8-1-1-1.7-2.6-1.7-3.6 0-1.5.2-1.6 1.5-.2.8.8 1.5 1.9 1.5 2.4 0 1 3.9 4.7 4.3 4.1.2-.2 1.4-2.3 2.7-4.6s2.7-4 3.1-3.7c.5.2-.1 1.9-1.1 3.7-1.1 1.8-2 3.5-2 3.9 0 1.3 3.5.9 5.5-.6 1.6-1.1 1.7-1.7.7-2.8-.7-.9-1-2.8-.6-4.5C18.5 7 16 5 10 5c-4.1 0-5.2.4-6.5 2.4zM19 6.8c0 .4.7 2 1.6 3.7.8 1.6 1.3 3.7 1.1 4.7-.7 2.5.6 2.2 4.2-.8 3.7-3.1 3.8-3.9 1-5.5C23.8 7.3 19 6 19 6.8zm10.7 7c-.4 1.9-2.7 5.4-5.3 8.2s-4.4 5.1-4 5.1c.3.1.9.2 1.4.3.4.1 1.2.5 1.8.9 1.7 1 7-5.5 7.8-9.5.3-2 .3-4.6-.2-5.8-.8-2.3-.9-2.2-1.5.8zM24 18c-1.9 1.6-4.7 3-6.2 3-3.1 0-5.8.9-5.8 1.9 0 1.6 5.1 3.1 6.9 2.2 2.6-1.5 10.4-10.2 8.9-10.1-.2 0-1.9 1.4-3.8 3z"/></svg>
